{"buffers":[{"uri":"house opening v3.bin","byteLength":151740}],"asset":{"version":"2.0","generator":"gltfpack 0.16"},"bufferViews":[{"buffer":0,"byteOffset":0,"byteLength":58596,"byteStride":12,"target":34962},{"buffer":0,"byteOffset":58596,"byteLength":58596,"byteStride":12,"target":34962},{"buffer":0,"byteOffset":117192,"byteLength":34548,"target":34963}],"accessors":[{"bufferView":0,"byteOffset":0,"componentType":5126,"count":60,"type":"VEC3","min":[-2.36810231,-2.36810231,13],"max":[2.36810231,2.36810231,13]},{"bufferView":1,"byteOffset":0,"componentType":5126,"count":60,"type":"VEC3"},{"bufferView":2,"byteOffset":0,"componentType":5123,"count":174,"type":"SCALAR"},{"bufferView":0,"byteOffset":720,"componentType":5126,"count":4823,"type":"VEC3","min":[-5,-5,0],"max":[5,5,13.5]},{"bufferView":1,"byteOffset":720,"componentType":5126,"count":4823,"type":"VEC3"},{"bufferView":2,"byteOffset":348,"componentType":5123,"count":17100,"type":"SCALAR"}],"materials":[{"pbrMetallicRoughness":{"baseColorFactor":[0.627451003,0.627451003,0.627451003,1],"metallicFactor":0},"doubleSided":true},{"pbrMetallicRoughness":{"baseColorFactor":[0.43921569,0.501960814,0.564705908,1],"metallicFactor":0},"doubleSided":true}],"meshes":[{"primitives":[{"attributes":{"POSITION":0,"NORMAL":1},"mode":4,"indices":2,"material":0}]},{"primitives":[{"attributes":{"POSITION":3,"NORMAL":4},"mode":4,"indices":5,"material":1}]}],"nodes":[{"mesh":0},{"mesh":1},{"children":[0]},{"children":[1]}],"scenes":[{"nodes":[2,3]}]}