{
  "accessors": [
    {
      "bufferView": 2,
      "componentType": 5126,
      "count": 4524,
      "max": [
        369.5182189941406,
        662.2122192382813,
        1447.7703857421875
      ],
      "min": [
        -368.4661560058594,
        -568.14501953125,
        0.8878681659698486
      ],
      "type": "VEC3"
    },
    {
      "bufferView": 2,
      "byteOffset": 54288,
      "componentType": 5126,
      "count": 4524,
      "max": [
        0.9994572401046753,
        0.9928290843963623,
        0.9962369799613953
      ],
      "min": [
        -0.9999656081199646,
        -0.996978223323822,
        -0.999538242816925
      ],
      "type": "VEC3"
    },
    {
      "bufferView": 1,
      "componentType": 5126,
      "count": 4524,
      "max": [
        0.9999449849128723,
        1.0
      ],
      "min": [
        0.0,
        -9.642623071542955e-17
      ],
      "type": "VEC2"
    },
    {
      "bufferView": 1,
      "byteOffset": 36192,
      "componentType": 5126,
      "count": 4524,
      "max": [
        0.9999449849128723,
        1.0
      ],
      "min": [
        0.0,
        -9.642623071542955e-17
      ],
      "type": "VEC2"
    },
    {
      "bufferView": 0,
      "componentType": 5125,
      "count": 4524,
      "type": "SCALAR"
    },
    {
      "bufferView": 2,
      "byteOffset": 108576,
      "componentType": 5126,
      "count": 48024,
      "max": [
        382.97174072265625,
        970.748046875,
        492.9670715332031
      ],
      "min": [
        -1291.2940673828125,
        -1360.48876953125,
        -908.8131103515625
      ],
      "type": "VEC3"
    },
    {
      "bufferView": 2,
      "byteOffset": 684864,
      "componentType": 5126,
      "count": 48024,
      "max": [
        1.0,
        0.9997467994689941,
        1.0
      ],
      "min": [
        -0.9994887709617615,
        -1.0,
        -0.9999808669090271
      ],
      "type": "VEC3"
    },
    {
      "bufferView": 1,
      "byteOffset": 72384,
      "componentType": 5126,
      "count": 48024,
      "max": [
        1.0,
        1.0
      ],
      "min": [
        0.0,
        0.0
      ],
      "type": "VEC2"
    },
    {
      "bufferView": 1,
      "byteOffset": 456576,
      "componentType": 5126,
      "count": 48024,
      "max": [
        1.0,
        1.0
      ],
      "min": [
        0.0,
        0.0
      ],
      "type": "VEC2"
    },
    {
      "bufferView": 0,
      "byteOffset": 18096,
      "componentType": 5125,
      "count": 72036,
      "type": "SCALAR"
    }
  ],
  "asset": {
    "extras": {
      "author": "Andrea Marziano (https://sketchfab.com/3dartel)",
      "license": "CC-BY-4.0 (http://creativecommons.org/licenses/by/4.0/)",
      "source": "https://sketchfab.com/3d-models/christmas-light-deer-018aedcb191448029821746698475f8f",
      "title": "Christmas Light Deer"
    },
    "generator": "Sketchfab-15.53.0",
    "version": "2.0"
  },
  "bufferViews": [
    {
      "buffer": 0,
      "byteLength": 306240,
      "name": "floatBufferViews",
      "target": 34963
    },
    {
      "buffer": 0,
      "byteLength": 840768,
      "byteOffset": 306240,
      "byteStride": 8,
      "name": "floatBufferViews",
      "target": 34962
    },
    {
      "buffer": 0,
      "byteLength": 1261152,
      "byteOffset": 1147008,
      "byteStride": 12,
      "name": "floatBufferViews",
      "target": 34962
    }
  ],
  "buffers": [
    {
      "byteLength": 2408160,
      "uri": "scene.bin"
    }
  ],
  "extensionsUsed": [
    "KHR_materials_specular",
    "KHR_materials_emissive_strength"
  ],
  "images": [
    {
      "uri": "textures/Frame_edge_baseColor.png"
    },
    {
      "uri": "textures/light_baseColor.png"
    },
    {
      "uri": "textures/light_emissive.png"
    }
  ],
  "materials": [
    {
      "alphaMode": "BLEND",
      "doubleSided": true,
      "extensions": {
        "KHR_materials_specular": {
          "specularColorFactor": [
            1.0,
            1.0,
            1.0
          ],
          "specularFactor": 0.08990503590106179
        }
      },
      "name": "Frame_edge",
      "pbrMetallicRoughness": {
        "baseColorTexture": {
          "index": 0
        },
        "metallicFactor": 0.5348587729029269,
        "roughnessFactor": 0.23009593934000558
      }
    },
    {
      "alphaMode": "BLEND",
      "doubleSided": true,
      "emissiveFactor": [
        1.0,
        1.0,
        1.0
      ],
      "emissiveTexture": {
        "index": 2
      },
      "extensions": {
        "KHR_materials_emissive_strength": {
          "emissiveStrength": 10.0
        }
      },
      "name": "light",
      "pbrMetallicRoughness": {
        "baseColorTexture": {
          "index": 1
        },
        "metallicFactor": 0.0
      }
    }
  ],
  "meshes": [
    {
      "name": "Edge_Frame edge_0",
      "primitives": [
        {
          "attributes": {
            "NORMAL": 1,
            "POSITION": 0,
            "TEXCOORD_0": 2,
            "TEXCOORD_1": 3
          },
          "indices": 4,
          "material": 0,
          "mode": 4
        }
      ]
    },
    {
      "name": "Light_light_0",
      "primitives": [
        {
          "attributes": {
            "NORMAL": 6,
            "POSITION": 5,
            "TEXCOORD_0": 7,
            "TEXCOORD_1": 8
          },
          "indices": 9,
          "material": 1,
          "mode": 4
        }
      ]
    }
  ],
  "nodes": [
    {
      "children": [
        1
      ],
      "matrix": [
        -1.0,
        2.832769343193999e-16,
        6.290011496532519e-32,
        0.0,
        0.0,
        2.220446049250313e-16,
        -1.0,
        0.0,
        -2.832769343193999e-16,
        -1.0,
        -2.220446049250313e-16,
        0.0,
        0.0,
        0.0,
        0.0,
        1.0
      ],
      "name": "Sketchfab_model"
    },
    {
      "children": [
        2
      ],
      "matrix": [
        0.009999999776482582,
        0.0,
        0.0,
        0.0,
        0.0,
        -0.009999999776482582,
        0.0,
        0.0,
        0.0,
        0.0,
        -0.009999999776482582,
        0.0,
        0.0,
        0.0,
        0.0,
        1.0
      ],
      "name": "Christmas light deer.fbx"
    },
    {
      "children": [
        3,
        5
      ],
      "name": "RootNode"
    },
    {
      "children": [
        4
      ],
      "matrix": [
        3.1391647281608925e-07,
        -0.9999999999999507,
        2.465190328815662e-32,
        0.0,
        0.9999999999999507,
        3.1391647281608925e-07,
        2.832769343193852e-16,
        0.0,
        -2.832769343193713e-16,
        -8.892529604447364e-23,
        1.0,
        0.0,
        0.0,
        0.0,
        0.0,
        1.0
      ],
      "name": "Edge"
    },
    {
      "mesh": 0,
      "name": "Edge_Frame edge_0"
    },
    {
      "children": [
        6
      ],
      "matrix": [
        0.5574497621341492,
        0.3204482563858342,
        -0.04477499936944174,
        0.0,
        0.02426905980732484,
        0.047532638969303584,
        0.6423346354209437,
        0.0,
        0.32264980757056605,
        -0.5572213977447087,
        0.029043733623350776,
        0.0,
        439.3844909667969,
        -59.89765548706055,
        845.4583129882813,
        1.0
      ],
      "name": "Light"
    },
    {
      "mesh": 1,
      "name": "Light_light_0"
    }
  ],
  "samplers": [
    {
      "magFilter": 9729,
      "minFilter": 9987,
      "wrapS": 10497,
      "wrapT": 10497
    }
  ],
  "scene": 0,
  "scenes": [
    {
      "name": "Sketchfab_Scene",
      "nodes": [
        0
      ]
    }
  ],
  "textures": [
    {
      "sampler": 0,
      "source": 0
    },
    {
      "sampler": 0,
      "source": 1
    },
    {
      "sampler": 0,
      "source": 2
    }
  ]
}
