{"buffers":[{"uri":"Spinner.bin","byteLength":144600}],"asset":{"version":"2.0","generator":"gltfpack 0.16"},"bufferViews":[{"buffer":0,"byteOffset":0,"byteLength":52620,"byteStride":12,"target":34962},{"buffer":0,"byteOffset":52620,"byteLength":52620,"byteStride":12,"target":34962},{"buffer":0,"byteOffset":105240,"byteLength":39360,"target":34963}],"accessors":[{"bufferView":0,"byteOffset":0,"componentType":5126,"count":4385,"type":"VEC3","min":[-3.84756494,-3.24875021,0],"max":[3.25,3.25,9.47999954]},{"bufferView":1,"byteOffset":0,"componentType":5126,"count":4385,"type":"VEC3"},{"bufferView":2,"byteOffset":0,"componentType":5123,"count":19680,"type":"SCALAR"}],"materials":[{"pbrMetallicRoughness":{"baseColorFactor":[0.964705884,0.964705884,0.952941179,1],"metallicFactor":0},"doubleSided":true}],"meshes":[{"primitives":[{"attributes":{"POSITION":0,"NORMAL":1},"mode":4,"indices":2,"material":0}]}],"nodes":[{"mesh":0},{"children":[0]}],"scenes":[{"nodes":[1]}]}